<svg width="68" height="48" viewBox="0 0 68 48" fill="none" xmlns="http://www.w3.org/2000/svg">
<path d="M48.7669 38.7431H30.3579C27.3643 38.7431 24.8436 40.7785 24.092 43.5575C24.0596 43.8837 24.0013 44.2098 23.9106 44.5099C23.6773 45.2993 23.2496 46.0038 22.6859 46.5648C21.8046 47.452 20.58 48 19.2387 48C8.59244 48.0065 -0.0580246 39.252 0.000293143 28.5208C0.0650906 17.8353 8.83219 9.26991 19.446 9.26991H39.4231C41.8465 9.02854 43.758 7.03887 43.8941 4.56646C43.8941 4.56646 43.8941 4.55341 43.8941 4.54689C43.8941 4.50122 43.8941 4.46208 43.8941 4.41642C44.0431 1.95053 46.0713 0 48.553 0C58.9984 0 67.7007 8.29791 67.9923 18.8073C68.2968 29.7407 59.5556 38.7301 48.7604 38.7301L48.7669 38.7431ZM50.5682 7.46942C50.5682 7.46942 50.5553 7.46942 50.5488 7.46942C50.2702 7.42376 49.9915 7.39114 49.7129 7.36504C49.7 7.36504 49.6805 7.36504 49.6676 7.36504C49.5574 7.36504 49.4472 7.35852 49.3306 7.35852C46.5897 7.35852 44.244 9.0742 43.2915 11.4944C43.2461 11.6445 43.1878 11.7945 43.1295 11.9445C43.1295 11.9445 43.1295 11.9445 43.1295 11.9511C42.0668 14.6583 39.449 16.5697 36.3776 16.5697H19.2387C12.5904 16.5697 7.19281 22.0495 7.25761 28.7556C7.32241 35.3966 12.7913 40.7002 19.3877 40.7002H20.1847C22.2971 40.5306 24.0337 39.0302 24.578 37.0405C24.5909 36.9818 24.6039 36.9165 24.6233 36.8578C24.6233 36.8578 24.6233 36.8513 24.6233 36.8448C25.4527 33.7331 28.2714 31.4368 31.6279 31.4368H48.7669C55.4151 31.4368 60.8127 25.9571 60.7479 19.2509C60.6896 13.2753 56.2575 8.38271 50.5618 7.4629L50.5682 7.46942Z" fill="#0489DC"/>
</svg>
